<svg width="1440" height="207" viewBox="0 0 1440 207" fill="none" xmlns="http://www.w3.org/2000/svg">
<path d="M750.574 111.831C743.373 92.8378 725.024 79.332 703.531 79.332C682.039 79.332 663.69 92.8221 656.489 111.815C643.015 115.353 633.062 127.616 633.062 142.223C633.062 159.596 647.134 173.668 664.492 173.668H742.508C759.866 173.668 773.938 159.596 773.938 142.223C773.938 127.648 764.017 115.384 750.574 111.831Z" fill="white"/>
<path d="M968.016 99.8308C954.016 80.8378 918.345 67.332 876.561 67.332C834.777 67.332 799.106 80.8221 785.106 99.815C758.911 103.353 739.562 115.616 739.562 130.223C739.562 147.596 766.919 161.668 800.665 161.668H952.335C986.081 161.668 1013.44 147.596 1013.44 130.223C1013.44 115.648 994.15 103.384 968.016 99.8308Z" fill="white"/>
<path d="M748.711 83.2947C743.16 80.0832 739.422 74.0793 739.422 67.2031C739.422 56.9455 747.742 48.625 758 48.625C768.258 48.625 776.578 56.9455 776.578 67.2031C776.578 74.0793 772.84 80.0832 767.289 83.2947L767.289 89.8594C767.289 90.8619 766.479 91.6719 765.477 91.6719L750.523 91.6719C749.521 91.6719 748.711 90.8619 748.711 89.8594L748.711 83.2947ZM751.203 95.2969L764.797 95.2969C765.046 95.2969 765.25 95.5008 765.25 95.75L765.25 97.5625C765.25 98.565 764.44 99.375 763.438 99.375L752.563 99.375C751.56 99.375 750.75 98.565 750.75 97.5625L750.75 95.75C750.75 95.5008 750.954 95.2969 751.203 95.2969Z" fill="white"/>
<path d="M1105.88 62.7848L1097.22 54.1223C1096.99 53.8937 1096.69 53.7812 1096.39 53.7812C1096.09 53.7812 1095.79 53.8937 1095.56 54.1223L1089.9 59.7895C1089.47 59.7402 1089.04 59.7191 1088.61 59.7191C1086.03 59.7191 1083.46 60.5664 1081.35 62.2609C1080.8 62.6934 1080.76 63.5055 1081.25 63.9977L1087.64 70.3855L1080.07 77.9512C1079.97 78.0434 1079.92 78.1654 1079.9 78.2957L1079.78 79.6035C1079.75 79.934 1080.02 80.2152 1080.34 80.2152C1080.36 80.2152 1080.38 80.2152 1080.4 80.2117L1081.7 80.0922C1081.83 80.0816 1081.96 80.0219 1082.05 79.9305L1089.62 72.3578L1096.01 78.7457C1096.24 78.9742 1096.54 79.0867 1096.84 79.0867C1097.18 79.0867 1097.51 78.9391 1097.75 78.6508C1099.73 76.1793 1100.55 73.0855 1100.21 70.0938L1105.88 64.4301C1106.33 63.9801 1106.33 63.2418 1105.88 62.7848Z" fill="white"/>
<path d="M378.875 92.9375L395.125 92.9375C395.297 92.9375 395.437 92.7969 395.437 92.625C395.437 91.0625 395.094 89.6289 394.426 88.4023C393.754 87.1719 392.766 86.1836 391.535 85.5117C390.309 84.8438 388.875 84.5 387.312 84.5L386.688 84.5C385.125 84.5 383.691 84.8438 382.465 85.5117C381.234 86.1836 380.246 87.1719 379.574 88.4023C378.906 89.6289 378.562 91.0625 378.562 92.625C378.562 92.7969 378.703 92.9375 378.875 92.9375Z" fill="white"/>
<path d="M403.719 102L397.937 102L397.937 98.0938C400.937 98.0938 403.367 95.6641 403.367 92.6641C403.367 92.4922 403.227 92.3516 403.055 92.3516L400.711 92.3516C400.539 92.3516 400.398 92.4922 400.398 92.6641C400.398 94.0234 399.297 95.125 397.937 95.125L376.062 95.125C374.703 95.125 373.602 94.0234 373.602 92.6641C373.602 92.4922 373.461 92.3516 373.289 92.3516L370.945 92.3516C370.773 92.3516 370.633 92.4922 370.633 92.6641C370.633 95.6641 373.062 98.0938 376.062 98.0938L376.062 102L370.281 102C370.109 102 369.969 102.141 369.969 102.312L369.969 104.5C369.969 104.672 370.109 104.813 370.281 104.813L376.062 104.813L376.062 108.563C376.062 108.816 376.07 109.07 376.09 109.316C373.41 110.461 371.531 113.121 371.531 116.219C371.531 116.391 371.672 116.531 371.844 116.531L374.031 116.531C374.203 116.531 374.344 116.391 374.344 116.219C374.344 114.492 375.277 112.98 376.672 112.168C376.906 112.84 377.203 113.48 377.559 114.082C378.508 115.703 379.863 117.059 381.484 118.008C382.613 118.668 383.867 119.133 385.207 119.355C385.379 119.355 385.52 119.215 385.52 119.043L385.52 100.906C385.52 100.734 385.66 100.594 385.832 100.594L388.176 100.594C388.348 100.594 388.488 100.734 388.488 100.906L388.488 119.039C388.488 119.211 388.629 119.352 388.801 119.352C390.141 119.129 391.395 118.664 392.523 118.004C394.145 117.055 395.5 115.699 396.449 114.078C396.805 113.473 397.102 112.832 397.336 112.164C398.723 112.98 399.656 114.492 399.656 116.219C399.656 116.391 399.797 116.531 399.969 116.531L402.156 116.531C402.328 116.531 402.469 116.391 402.469 116.219C402.469 113.121 400.59 110.461 397.91 109.316C397.926 109.066 397.937 108.816 397.937 108.563L397.937 104.813L403.719 104.813C403.891 104.813 404.031 104.672 404.031 104.5L404.031 102.313C404.031 102.141 403.891 102 403.719 102Z" fill="white"/>
<path d="M336.891 99.5199L304.739 89.8182L314.441 57.6666C314.56 57.271 314.334 56.8496 313.939 56.7303L311.601 56.0249C306.885 54.5965 301.933 54.1135 297.03 54.6034C292.126 55.0934 287.368 56.5468 283.028 58.8801C278.759 61.1612 274.975 64.2506 271.886 67.9763C268.678 71.8445 266.306 76.2592 264.841 81.1143C263.376 85.9694 262.913 90.9503 263.446 95.9471C263.964 100.763 265.392 105.393 267.696 109.688C270 113.983 273.058 117.731 276.793 120.83C280.651 124.042 285.119 126.441 289.928 127.883C294.644 129.312 299.596 129.795 304.499 129.305C309.403 128.815 314.161 127.361 318.502 125.028C322.797 122.724 326.545 119.666 329.643 115.932C332.856 112.074 335.255 107.606 336.697 102.797L337.402 100.459C337.513 100.061 337.287 99.6392 336.891 99.5199ZM346.3 96.9146L346.831 94.3086C348.563 85.8063 347.249 76.8953 343.11 69.2211C338.982 61.532 332.296 55.5276 324.209 52.2464L321.735 51.2448C321.323 51.0814 320.866 51.2965 320.738 51.7191L310.329 86.2174C310.209 86.613 310.435 87.0343 310.831 87.1537L345.347 97.4708C345.772 97.5893 346.211 97.339 346.3 96.9146Z" fill="white"/>
<g clip-path="url(#clip0_169000_93030)">
<path d="M145.098 79.5631C143.304 78.3278 141.285 77.4606 139.093 76.9984C134.636 76.0506 129.953 76.8587 125.919 79.2697C121.885 81.6808 118.955 85.4226 117.676 89.7922C117.048 91.9471 116.853 94.1304 117.094 96.3011C117.346 98.5641 118.06 100.693 119.223 102.638L120.119 104.138C120.325 104.483 120.769 104.595 121.114 104.389L124.114 102.595C124.459 102.389 124.57 101.946 124.365 101.601L123.468 100.101C120.163 94.5723 122.4 87.1347 128.456 83.5148C134.512 79.8949 142.122 81.4475 145.427 86.9761C146.782 89.2431 147.251 91.8583 146.786 94.5496C146.327 97.2143 144.948 99.7509 142.905 101.696C141.737 102.808 140.976 104.297 140.765 105.901C140.556 107.499 140.89 109.121 141.716 110.506L142.758 112.251C142.964 112.595 143.408 112.707 143.753 112.501L146.753 110.708C147.098 110.502 147.209 110.058 147.003 109.713L145.961 107.969C145.439 107.096 145.587 105.968 146.313 105.277C149.119 102.604 151.018 99.0939 151.662 95.3904C151.983 93.5171 151.987 91.6442 151.666 89.8075C151.334 87.9019 150.661 86.0946 149.672 84.4388C148.509 82.4941 146.969 80.8507 145.098 79.5631ZM147.904 116.053C146.187 117.079 145.626 119.307 146.652 121.024C147.679 122.741 149.907 123.302 151.624 122.276C153.341 121.25 153.902 119.022 152.875 117.305C151.849 115.588 149.621 115.027 147.904 116.053Z" fill="white"/>
</g>
<path d="M96 41.25C87.3023 41.25 80.25 48.3023 80.25 57C80.25 65.6977 87.3023 72.75 96 72.75C104.698 72.75 111.75 65.6977 111.75 57C111.75 48.3023 104.698 41.25 96 41.25ZM88.125 53.8008C88.134 53.3592 88.3158 52.9387 88.6313 52.6296C88.9467 52.3205 89.3708 52.1474 89.8125 52.1474C90.2542 52.1474 90.6783 52.3205 90.9937 52.6296C91.3092 52.9387 91.491 53.3592 91.5 53.8008C91.491 54.2424 91.3092 54.6628 90.9937 54.9719C90.6783 55.2811 90.2542 55.4542 89.8125 55.4542C89.3708 55.4542 88.9467 55.2811 88.6313 54.9719C88.3158 54.6628 88.134 54.2424 88.125 53.8008ZM96 63.3633C92.9941 63.3633 90.5297 60.9973 90.375 58.0336C90.3731 57.9955 90.379 57.9574 90.3922 57.9216C90.4055 57.8859 90.4259 57.8532 90.4522 57.8256C90.4785 57.7979 90.5102 57.776 90.5453 57.761C90.5803 57.7459 90.6181 57.7382 90.6562 57.7383H92.3473C92.4949 57.7383 92.6215 57.8508 92.632 57.9984C92.7656 59.7387 94.2246 61.1133 96 61.1133C97.7754 61.1133 99.2379 59.7387 99.368 57.9984C99.3785 57.8508 99.5051 57.7383 99.6527 57.7383H101.344C101.382 57.7382 101.42 57.7459 101.455 57.761C101.49 57.776 101.521 57.7979 101.548 57.8256C101.574 57.8532 101.594 57.8859 101.608 57.9216C101.621 57.9574 101.627 57.9955 101.625 58.0336C101.47 60.9973 99.0059 63.3633 96 63.3633ZM102.188 55.4883C101.746 55.4793 101.325 55.2975 101.016 54.982C100.707 54.6665 100.534 54.2425 100.534 53.8008C100.534 53.3591 100.707 52.935 101.016 52.6195C101.325 52.304 101.746 52.1223 102.188 52.1133C102.629 52.1223 103.05 52.304 103.359 52.6195C103.668 52.935 103.841 53.3591 103.841 53.8008C103.841 54.2425 103.668 54.6665 103.359 54.982C103.05 55.2975 102.629 55.4793 102.188 55.4883Z" fill="white"/>
<g clip-path="url(#clip1_169000_93030)">
<path d="M81.733 103.786L78.1758 82.307C77.9938 81.1937 77.0397 80.3707 75.9115 80.3382L54.1468 79.8007L54.1191 79.8027C53.8978 79.8181 53.7297 79.8994 53.6074 80.04L23.4782 114.693C23.4185 114.761 23.3729 114.841 23.3441 114.927C23.3152 115.013 23.3036 115.104 23.3099 115.195C23.3163 115.285 23.3404 115.374 23.3809 115.455C23.4215 115.536 23.4777 115.609 23.5463 115.668L50.4666 139.074C50.6071 139.196 50.7849 139.254 50.9716 139.241C51.1584 139.227 51.3265 139.146 51.4487 139.006L81.578 104.353C81.7062 104.198 81.7613 103.992 81.733 103.786ZM64.8552 99.9739C62.4136 100.144 60.2899 98.2979 60.1194 95.8563C59.9489 93.4147 61.7953 91.291 64.237 91.1205C66.6786 90.95 68.8023 92.7965 68.9728 95.2381C69.1433 97.6797 67.2968 99.8034 64.8552 99.9739Z" fill="white"/>
</g>
<g clip-path="url(#clip2_169000_93030)">
<path d="M250.061 58.2265L247.058 53.8961C246.944 53.7327 246.782 53.6408 246.601 53.608C246.419 53.5751 246.234 53.613 246.072 53.7177L238.299 59.1088C235.789 56.6526 232.598 55.008 229.141 54.3884C224.713 53.5874 219.98 54.4729 215.986 57.2428L205.579 64.4616C205.427 64.5683 205.323 64.7308 205.29 64.9138C205.256 65.0968 205.297 65.2855 205.402 65.4389L224.65 93.1882C224.763 93.3516 224.925 93.4434 225.107 93.4763C225.28 93.5075 225.474 93.4712 225.636 93.3665L236.043 86.1477C243.081 81.2581 245.451 72.1567 242.111 64.6035L249.883 59.2124C250.201 58.9842 250.281 58.5431 250.061 58.2265ZM214.534 87.339C214.428 87.1867 214.265 87.0827 214.082 87.0496C213.899 87.0165 213.71 87.057 213.557 87.1622L206.755 91.8803L200.358 82.6578L207.17 77.9326C207.487 77.713 207.567 77.2719 207.347 76.9553L204.768 73.2377C204.662 73.0854 204.499 72.9814 204.316 72.9483C204.133 72.9152 203.944 72.9557 203.791 73.0609L196.979 77.7861L193.933 73.3944C193.88 73.3181 193.812 73.2532 193.734 73.2037C193.655 73.1542 193.567 73.1211 193.476 73.1063C193.303 73.075 193.109 73.1113 192.947 73.216L182.548 80.4364C175.511 85.3174 173.14 94.4274 176.48 101.981L168.708 107.372C168.556 107.478 168.452 107.641 168.419 107.824C168.386 108.007 168.426 108.196 168.531 108.349L171.535 112.679C171.648 112.843 171.81 112.935 171.992 112.967C172.174 113 172.359 112.962 172.521 112.858L180.293 107.467C182.85 109.974 186.062 111.574 189.452 112.187C193.88 112.988 198.613 112.103 202.607 109.333L213.014 102.114C213.33 101.894 213.41 101.453 213.191 101.137L210.144 96.7449L216.957 92.0198C217.273 91.8002 217.353 91.3591 217.133 91.0425L214.534 87.339Z" fill="white"/>
</g>
<path d="M168.993 58.3714C168.481 57.2193 167.737 56.1852 166.807 55.3339L166.04 54.6299C166.014 54.6067 165.982 54.5902 165.948 54.5819C165.915 54.5736 165.879 54.5737 165.845 54.5823C165.811 54.5909 165.78 54.6077 165.754 54.6311C165.728 54.6546 165.709 54.6841 165.697 54.7169L165.354 55.7004C165.141 56.3174 164.748 56.9476 164.191 57.5672C164.154 57.6068 164.112 57.6173 164.083 57.6199C164.054 57.6226 164.009 57.6173 163.97 57.5804C163.933 57.5488 163.915 57.5013 163.917 57.4538C164.015 55.8665 163.54 54.0762 162.501 52.1277C161.642 50.5087 160.447 49.2457 158.955 48.3651L157.866 47.7243C157.724 47.64 157.542 47.7507 157.55 47.9168L157.608 49.1824C157.647 50.0473 157.547 50.8119 157.31 51.4474C157.02 52.2252 156.603 52.9477 156.07 53.5963C155.7 54.0471 155.28 54.4548 154.818 54.8118C153.706 55.6666 152.802 56.7618 152.173 58.0155C151.546 59.2801 151.22 60.6724 151.219 62.0839C151.219 63.3284 151.464 64.5334 151.949 65.6698C152.418 66.764 153.094 67.757 153.94 68.594C154.794 69.4377 155.786 70.1022 156.89 70.5636C158.035 71.0435 159.248 71.2861 160.5 71.2861C161.752 71.2861 162.965 71.0435 164.11 70.5662C165.212 70.1075 166.214 69.4385 167.06 68.5966C167.914 67.7529 168.584 66.7667 169.051 65.6725C169.535 64.5392 169.784 63.3191 169.781 62.0865C169.781 60.7998 169.518 59.55 168.993 58.3714Z" fill="white"/>
<path d="M538.501 105.249C533.223 91.3283 519.776 81.4297 504.023 81.4297C488.271 81.4297 474.823 91.3168 469.545 105.237C459.669 107.83 452.375 116.818 452.375 127.523C452.375 140.257 462.688 150.57 475.41 150.57H532.59C545.312 150.57 555.625 140.257 555.625 127.523C555.625 116.841 548.354 107.853 538.501 105.249Z" fill="white"/>
<path d="M453.777 27.6266L437.388 56.9395L408.075 40.5506C407.715 40.3489 407.254 40.479 407.053 40.8397L405.861 42.971C403.452 47.2697 401.915 52.0018 401.339 56.8958C400.763 61.7899 401.159 66.7495 402.505 71.4901C403.815 76.1492 406.018 80.5092 408.992 84.3273C412.08 88.2917 415.881 91.5575 420.308 94.0324C424.734 96.5072 429.499 98.0307 434.493 98.5851C439.308 99.1144 444.137 98.7152 448.827 97.3888C453.517 96.0624 457.835 93.8822 461.664 90.9015C465.631 87.8243 468.935 83.9769 471.377 79.5904C473.787 75.2917 475.323 70.5596 475.899 65.6656C476.475 60.7715 476.079 55.8119 474.734 51.0713C473.407 46.381 471.227 42.0633 468.247 38.2341C465.169 34.2672 461.322 30.9632 456.935 28.5208L454.804 27.3292C454.439 27.1358 453.979 27.2659 453.777 27.6266ZM453.256 17.8777L450.826 16.7984C442.895 13.2787 433.91 12.6451 425.525 15.0369C417.128 17.4153 409.826 22.6536 404.882 29.8458L403.372 32.0465C403.124 32.4134 403.236 32.9063 403.621 33.1217L435.074 50.7068C435.434 50.9084 435.894 50.7783 436.096 50.4177L453.595 18.9276C453.802 18.5377 453.652 18.0557 453.256 17.8777Z" fill="white"/>
<path d="M654.574 88.8308C647.373 69.8378 629.024 56.332 607.531 56.332C586.039 56.332 567.69 69.8221 560.489 88.815C547.015 92.3526 537.062 104.616 537.062 119.223C537.062 136.596 551.134 150.668 568.492 150.668H646.508C663.866 150.668 677.938 136.596 677.938 119.223C677.938 104.648 668.017 92.3841 654.574 88.8308Z" fill="white"/>
<g clip-path="url(#clip3_169000_93030)">
<path d="M27.1718 52.934C25.8875 52.1956 24.4716 51.7148 23.0033 51.5183C21.5326 51.3199 20.0373 51.4059 18.599 51.7716C17.1061 52.149 15.7031 52.8192 14.4714 53.7432C12.7403 55.0356 11.4053 56.7705 10.6061 58.7616C10.4149 59.238 10.257 59.7222 10.1323 60.2145C9.62494 60.1941 9.11574 60.2079 8.60471 60.2559C6.46855 60.4563 4.42576 61.2432 2.69473 62.5355C1.44824 63.4661 0.418641 64.6067 -0.368611 65.9327C-1.13035 67.2123 -1.63381 68.6107 -1.86313 70.0834C-2.09388 71.5469 -2.03521 73.0414 -1.69046 74.4823C-1.33179 75.9808 -0.68193 77.3713 0.243441 78.6108C1.11638 79.78 2.26479 80.8201 3.66417 81.7057C4.83427 82.4453 6.20525 83.095 7.7421 83.6374C10.1757 84.4945 13.0962 85.103 16.4177 85.4503C21.9227 86.0267 26.7014 85.6962 26.9013 85.6782L28.1319 85.5907C28.6762 85.5507 29.1502 85.1968 29.3433 84.6863L29.777 83.5313C29.8484 83.3412 31.5224 78.8596 32.5378 73.4152C33.1488 70.1319 33.3954 67.1589 33.2652 64.5821C33.182 62.9544 32.9521 61.4527 32.5721 60.1233C32.1207 58.53 31.4498 57.1333 30.5769 55.9641C29.655 54.722 28.5066 53.7038 27.1718 52.934Z" fill="white"/>
</g>
<g clip-path="url(#clip4_169000_93030)">
<path d="M998.917 62.8197L990.497 66.0549L983.06 60.9515C982.857 60.8116 982.612 60.7429 982.366 60.7562C981.747 60.7888 981.27 61.3183 981.3 61.9386L981.777 70.946L974.626 76.4441C974.429 76.5952 974.29 76.8064 974.225 77.044C974.148 77.3326 974.189 77.6399 974.339 77.8984C974.488 78.1569 974.734 78.3455 975.023 78.4227L983.736 80.755L986.754 89.2559C986.824 89.4538 986.948 89.6282 987.112 89.7592C987.276 89.8901 987.474 89.9726 987.682 89.9971C987.891 90.0216 988.102 89.9872 988.292 89.8978C988.482 89.8084 988.643 89.6675 988.757 89.4913L993.667 81.9245L1002.68 81.6798C1002.93 81.6744 1003.17 81.5843 1003.36 81.4288C1003.84 81.0376 1003.92 80.3305 1003.53 79.8485L997.846 72.8404L1000.4 64.1895C1000.47 63.9532 1000.46 63.7002 1000.37 63.4684C1000.15 62.8854 999.499 62.5984 998.917 62.8197Z" fill="white"/>
</g>
<path d="M1043.12 91.1484H1045.6C1045.83 91.1484 1046.02 90.9621 1046.02 90.7344V88.25C1046.02 88.0223 1045.83 87.8359 1045.6 87.8359H1043.12C1042.89 87.8359 1042.7 88.0223 1042.7 88.25V90.7344C1042.7 90.9621 1042.89 91.1484 1043.12 91.1484ZM1061.34 97.3594V82.4531C1061.34 81.537 1060.6 80.7969 1059.68 80.7969H1037.32C1036.4 80.7969 1035.66 81.537 1035.66 82.4531V97.3594C1032.24 97.3594 1029.45 100.056 1029.45 103.363V121.789C1029.45 122.017 1029.64 122.203 1029.87 122.203H1067.13C1067.36 122.203 1067.55 122.017 1067.55 121.789V103.363C1067.55 100.056 1064.76 97.3594 1061.34 97.3594ZM1057.61 97.3594H1039.39V84.5234H1057.61V97.3594ZM1051.4 91.1484H1053.88C1054.11 91.1484 1054.3 90.9621 1054.3 90.7344V88.25C1054.3 88.0223 1054.11 87.8359 1053.88 87.8359H1051.4C1051.17 87.8359 1050.98 88.0223 1050.98 88.25V90.7344C1050.98 90.9621 1051.17 91.1484 1051.4 91.1484Z" fill="white"/>
<path d="M1126.23 84.2188H1118.77C1117.86 84.2188 1117.12 84.9589 1117.12 85.875V114.031C1117.12 114.947 1117.86 115.688 1118.77 115.688H1126.23C1127.14 115.688 1127.88 114.947 1127.88 114.031V85.875C1127.88 84.9589 1127.14 84.2188 1126.23 84.2188ZM1142.17 69.3125H1134.71C1133.8 69.3125 1133.06 70.0526 1133.06 70.9688V114.031C1133.06 114.947 1133.8 115.688 1134.71 115.688H1142.17C1143.08 115.688 1143.82 114.947 1143.82 114.031V70.9688C1143.82 70.0526 1143.08 69.3125 1142.17 69.3125ZM1110.29 99.125H1102.83C1101.92 99.125 1101.18 99.8651 1101.18 100.781V114.031C1101.18 114.947 1101.92 115.688 1102.83 115.688H1110.29C1111.2 115.688 1111.94 114.947 1111.94 114.031V100.781C1111.94 99.8651 1111.2 99.125 1110.29 99.125Z" fill="white"/>
<g clip-path="url(#clip5_169000_93030)">
<path d="M1244.36 68.9646L1191.39 43.1173C1190.12 42.4957 1188.59 43.0227 1187.96 44.2965L1162.12 97.2639C1161.5 98.5377 1162.02 100.069 1163.3 100.691L1216.26 126.538C1217.54 127.16 1219.07 126.633 1219.69 125.359L1245.54 72.3914C1246.16 71.1176 1245.63 69.5862 1244.36 68.9646ZM1189.78 100.514L1186.12 98.7296C1185.96 98.6524 1185.83 98.4924 1185.8 98.3137L1184.77 93.9365L1180.69 95.8203C1180.61 95.8612 1180.52 95.8827 1180.42 95.8829C1180.33 95.8832 1180.24 95.8623 1180.16 95.8218L1176.5 94.0378C1176.03 93.806 1176.05 93.111 1176.55 92.8913L1183.76 89.5662L1181.98 82.0267C1181.86 81.5014 1182.39 81.0593 1182.87 81.2911L1186.53 83.0787C1186.69 83.1559 1186.82 83.3158 1186.85 83.4946L1187.84 87.6824L1191.75 85.8826C1191.92 85.7986 1192.11 85.8003 1192.27 85.8811L1195.93 87.6651C1196.4 87.8969 1196.39 88.5919 1195.89 88.8151L1188.86 92.0454L1190.67 99.7744C1190.79 100.303 1190.25 100.745 1189.78 100.514ZM1203.75 73.2963C1203.67 73.4547 1203.51 73.535 1203.38 73.4718L1198.43 71.0557L1196.02 75.9998C1195.95 76.1365 1195.77 76.1741 1195.61 76.0968L1192.16 74.4111C1192 74.3338 1191.92 74.1699 1191.98 74.0403L1194.4 69.089L1189.45 66.6729C1189.32 66.6097 1189.28 66.4309 1189.36 66.2726L1191.04 62.8182C1191.12 62.6599 1191.29 62.5795 1191.42 62.6427L1196.37 65.0589L1198.78 60.1076C1198.85 59.9781 1199.02 59.9405 1199.18 60.0178L1202.64 61.7035C1202.8 61.7807 1202.88 61.9447 1202.81 62.0742L1200.4 67.0255L1205.34 69.4382C1205.48 69.5049 1205.51 69.6836 1205.44 69.8419L1203.75 73.2963ZM1214.4 111.371C1214.32 111.529 1214.16 111.61 1214.03 111.546L1200.09 104.747C1199.97 104.684 1199.93 104.506 1200 104.347L1201.69 100.893C1201.77 100.734 1201.93 100.654 1202.06 100.717L1215.99 107.513C1216.12 107.579 1216.16 107.758 1216.08 107.917L1214.4 111.371ZM1218.05 103.886C1217.97 104.045 1217.81 104.125 1217.68 104.062L1203.75 97.2629C1203.62 97.1997 1203.58 97.021 1203.66 96.8627L1205.34 93.4083C1205.42 93.2499 1205.58 93.1696 1205.71 93.2328L1219.64 100.028C1219.78 100.095 1219.81 100.274 1219.74 100.432L1218.05 103.886ZM1227.36 84.8152C1227.28 84.9736 1227.12 85.0539 1226.99 84.9907L1213.05 78.1918C1212.92 78.1286 1212.89 77.9499 1212.96 77.7915L1214.65 74.3371C1214.73 74.1788 1214.89 74.0984 1215.02 74.1616L1228.95 80.9571C1229.08 81.0238 1229.12 81.2025 1229.04 81.3609L1227.36 84.8152Z" fill="white"/>
</g>
<path d="M1289.06 52.3125H1255.94C1255.02 52.3125 1254.28 53.0526 1254.28 53.9688V97.0312C1254.28 97.9474 1255.02 98.6875 1255.94 98.6875H1289.06C1289.98 98.6875 1290.72 97.9474 1290.72 97.0312V53.9688C1290.72 53.0526 1289.98 52.3125 1289.06 52.3125ZM1280.57 66.903L1278.17 65.1484L1275.61 66.9807V55.418H1280.57V66.903Z" fill="white"/>
<g clip-path="url(#clip6_169000_93030)">
<path d="M1345.6 45.9563L1340.71 43.9865C1340.53 43.9122 1340.34 43.9244 1340.17 43.9967C1340 44.069 1339.87 44.2025 1339.79 44.3789L1336.26 53.1523C1332.81 52.4781 1329.24 52.8558 1326.01 54.2364C1321.87 55.9985 1318.4 59.3376 1316.58 63.8453L1311.85 75.5932C1311.78 75.766 1311.78 75.959 1311.86 76.1301C1311.93 76.3012 1312.07 76.4367 1312.24 76.5071L1343.56 89.1292C1343.75 89.2036 1343.93 89.1913 1344.1 89.1191C1344.26 89.0502 1344.41 88.9133 1344.48 88.7369L1349.22 76.989C1352.41 69.0376 1349.4 60.1298 1342.46 55.6516L1345.99 46.8782C1346.13 46.5127 1345.96 46.1003 1345.6 45.9563ZM1331.9 89.7954C1331.72 89.7268 1331.53 89.7291 1331.36 89.8019C1331.19 89.8747 1331.05 90.0122 1330.98 90.1843L1327.89 97.8625L1317.48 93.6675L1320.58 85.9778C1320.72 85.6204 1320.54 85.2079 1320.19 85.0639L1315.99 83.3729C1315.82 83.3043 1315.62 83.3066 1315.45 83.3794C1315.28 83.4522 1315.15 83.5897 1315.08 83.7618L1311.98 91.4515L1307.02 89.4539C1306.93 89.4192 1306.84 89.4022 1306.75 89.4039C1306.66 89.4057 1306.57 89.4261 1306.48 89.4641C1306.32 89.5329 1306.18 89.6699 1306.1 89.8462L1301.37 101.591C1298.17 109.534 1301.19 118.45 1308.13 122.928L1304.6 131.701C1304.53 131.874 1304.53 132.067 1304.6 132.238C1304.68 132.41 1304.81 132.545 1304.99 132.615L1309.87 134.585C1310.06 134.659 1310.24 134.647 1310.41 134.575C1310.58 134.503 1310.72 134.369 1310.8 134.193L1314.33 125.419C1317.84 126.111 1321.41 125.684 1324.58 124.335C1328.72 122.573 1332.19 119.234 1334 114.726L1338.74 102.978C1338.88 102.621 1338.71 102.209 1338.35 102.065L1333.39 100.067L1336.49 92.3772C1336.63 92.0198 1336.46 91.6074 1336.1 91.4634L1331.9 89.7954Z" fill="white"/>
</g>
<path d="M1379.14 104.763C1379.74 103.982 1380.06 103.026 1380.06 102.031C1380.06 100.452 1379.18 98.9583 1377.76 98.1251C1377.39 97.9107 1376.98 97.7978 1376.55 97.7982L1368.12 97.7982L1368.33 93.4775C1368.38 92.4333 1368.01 91.4419 1367.3 90.6861C1366.95 90.3135 1366.52 90.0171 1366.05 89.8151C1365.58 89.6132 1365.07 89.5099 1364.56 89.5118C1362.73 89.5118 1361.11 90.7423 1360.63 92.5036L1357.61 103.437L1357.6 103.437L1357.6 118.484L1374.2 118.484C1374.53 118.484 1374.84 118.421 1375.13 118.294C1376.81 117.581 1377.89 115.946 1377.89 114.132C1377.89 113.689 1377.82 113.253 1377.7 112.831C1378.29 112.051 1378.61 111.094 1378.61 110.099C1378.61 109.656 1378.55 109.22 1378.42 108.799C1379.01 108.018 1379.34 107.062 1379.34 106.067C1379.33 105.624 1379.27 105.185 1379.14 104.763ZM1351.94 104.562L1351.94 117.359C1351.94 117.981 1352.44 118.484 1353.06 118.484L1355.35 118.484L1355.35 103.437L1353.06 103.437C1352.44 103.437 1351.94 103.94 1351.94 104.562Z" fill="white"/>
<g clip-path="url(#clip7_169000_93030)">
<path d="M1379.31 52.7701C1377.33 54.5942 1375.74 56.7896 1374.58 59.3034C1372.23 64.4144 1371.92 70.2752 1373.73 75.7916C1375.53 81.308 1379.24 85.857 1384.15 88.5901C1386.58 89.9337 1389.15 90.7649 1391.83 91.0659C1394.63 91.3802 1397.39 91.1002 1400.05 90.2305L1402.1 89.5597C1402.57 89.4056 1402.83 88.9015 1402.67 88.4304L1401.33 84.3272C1401.18 83.8561 1400.67 83.6005 1400.2 83.7545L1398.15 84.4254C1390.59 86.8976 1382.24 82.1756 1379.53 73.8933C1376.82 65.6111 1380.77 56.8688 1388.33 54.3966C1391.43 53.3829 1394.71 53.5305 1397.82 54.825C1400.91 56.1041 1403.59 58.4578 1405.37 61.4486C1406.39 63.1584 1407.98 64.482 1409.85 65.1728C1411.72 65.8611 1413.77 65.9004 1415.66 65.2843L1418.04 64.5041C1418.52 64.3501 1418.77 63.8459 1418.62 63.3748L1417.28 59.2717C1417.12 58.8006 1416.62 58.5449 1416.15 58.6989L1413.76 59.4791C1412.57 59.8692 1411.25 59.3839 1410.61 58.321C1408.16 54.2115 1404.45 50.9671 1400.17 49.1805C1398 48.2833 1395.74 47.7674 1393.44 47.6531C1391.06 47.5333 1388.7 47.851 1386.43 48.5914C1383.77 49.4611 1381.37 50.8681 1379.31 52.7701ZM1424.03 59.3431C1424.8 61.691 1427.33 62.9745 1429.67 62.2068C1432.02 61.439 1433.31 58.9082 1432.54 56.5603C1431.77 54.2124 1429.24 52.9288 1426.89 53.6966C1424.54 54.4644 1423.26 56.9952 1424.03 59.3431Z" fill="white"/>
</g>
<g clip-path="url(#clip8_169000_93030)">
<path d="M1436.72 104.698L1435.09 94.8094C1435 94.2969 1434.56 93.918 1434.04 93.903L1424.02 93.6556L1424.01 93.6565C1423.91 93.6636 1423.83 93.701 1423.77 93.7657L1409.9 109.719C1409.88 109.751 1409.85 109.788 1409.84 109.827C1409.83 109.867 1409.82 109.909 1409.83 109.95C1409.83 109.992 1409.84 110.033 1409.86 110.07C1409.88 110.108 1409.9 110.141 1409.93 110.168L1422.33 120.944C1422.39 121 1422.47 121.027 1422.56 121.021C1422.65 121.015 1422.72 120.977 1422.78 120.913L1436.65 104.959C1436.71 104.888 1436.74 104.793 1436.72 104.698ZM1428.95 102.943C1427.83 103.022 1426.85 102.171 1426.77 101.047C1426.69 99.9232 1427.54 98.9455 1428.67 98.867C1429.79 98.7885 1430.77 99.6386 1430.85 100.763C1430.93 101.887 1430.08 102.865 1428.95 102.943Z" fill="white"/>
</g>
<defs>
<clipPath id="clip0_169000_93030">
<rect width="58" height="58" fill="white" transform="translate(99 90.7566) rotate(-30.8669)"/>
</clipPath>
<clipPath id="clip1_169000_93030">
<rect width="71" height="71" fill="white" transform="translate(15 65.9459) rotate(-3.99449)"/>
</clipPath>
<clipPath id="clip2_169000_93030">
<rect width="90" height="90" fill="white" transform="translate(173.021 31) rotate(10.2537)"/>
</clipPath>
<clipPath id="clip3_169000_93030">
<rect width="44.8702" height="44.8702" fill="white" transform="translate(-12.6711 67.1724) rotate(-36.7447)"/>
</clipPath>
<clipPath id="clip4_169000_93030">
<rect width="36" height="36" fill="white" transform="translate(965 67.611) rotate(-29.2876)"/>
</clipPath>
<clipPath id="clip5_169000_93030">
<rect width="82" height="82" fill="white" transform="translate(1184.96 30) rotate(26.0117)"/>
</clipPath>
<clipPath id="clip6_169000_93030">
<rect width="90" height="90" fill="white" transform="translate(1266.26 65.506) rotate(-23.0526)"/>
</clipPath>
<clipPath id="clip7_169000_93030">
<rect width="71.6289" height="71.6289" fill="white" transform="translate(1380.22 111.348) rotate(-108.108)"/>
</clipPath>
<clipPath id="clip8_169000_93030">
<rect width="32.6873" height="32.6873" fill="white" transform="translate(1406 87.277) rotate(-3.99449)"/>
</clipPath>
</defs>
</svg>
